<svg width="22" height="22" viewBox="0 0 22 22" fill="none" xmlns="http://www.w3.org/2000/svg">
<path d="M21.0885 2.75922C21.0885 2.75922 19.2388 3.85199 18.2102 4.16172C17.6581 3.52694 16.9244 3.07702 16.1083 2.87281C15.2922 2.66862 14.4331 2.71998 13.6471 3.01997C12.8612 3.31996 12.1862 3.85409 11.7138 4.55012C11.2413 5.24617 10.9939 6.07052 11.0052 6.91172V7.82839C9.39426 7.87015 7.79804 7.51288 6.35863 6.78838C4.91922 6.06387 3.68134 4.99463 2.75521 3.67589C2.75521 3.67589 -0.911458 11.9259 7.33854 15.5926C5.45069 16.874 3.20177 17.5166 0.921875 17.4259C9.17188 22.0093 19.2552 17.4259 19.2552 6.88422C19.2544 6.62888 19.2298 6.37418 19.1819 6.12339C20.1174 5.20075 21.0885 2.75922 21.0885 2.75922Z" stroke="#718CAF" stroke-width="1.5" stroke-linecap="round" stroke-linejoin="round"/>
</svg>
