<svg width="22" height="22" viewBox="0 0 22 22" fill="none" xmlns="http://www.w3.org/2000/svg">
<path d="M10.9948 14.6673C13.0198 14.6673 14.6615 13.0257 14.6615 11.0007C14.6615 8.97561 13.0198 7.33398 10.9948 7.33398C8.96975 7.33398 7.32812 8.97561 7.32812 11.0007C7.32812 13.0257 8.96975 14.6673 10.9948 14.6673Z" stroke="#718CAF" stroke-width="1.5" stroke-linecap="round" stroke-linejoin="round"/>
<path d="M2.75 14.6667V7.33333C2.75 4.80203 4.80203 2.75 7.33333 2.75H14.6667C17.198 2.75 19.25 4.80203 19.25 7.33333V14.6667C19.25 17.198 17.198 19.25 14.6667 19.25H7.33333C4.80203 19.25 2.75 17.198 2.75 14.6667Z" stroke="#718CAF" stroke-width="1.5"/>
<path d="M16.0469 5.96814L16.0569 5.95703" stroke="#718CAF" stroke-width="1.5" stroke-linecap="round" stroke-linejoin="round"/>
</svg>
